<svg xmlns="http://www.w3.org/2000/svg" viewBox="0 0 64 64" width="64" height="64"><defs><linearGradient id="bg" x1="0" y1="0" x2="0.25" y2="1"><stop offset="0" stop-color="#FBF0CD"/><stop offset="0.55" stop-color="#F2C94C" stop-opacity="0.35"/><stop offset="1" stop-color="#F2C94C" stop-opacity="0.75"/></linearGradient><filter id="ds" x="-40%" y="-40%" width="180%" height="180%"><feDropShadow dx="0" dy="1.8" stdDeviation="1.8" flood-color="#826303" flood-opacity="0.4"/></filter><clipPath id="cp"><polygon points="32.0,6.0 52.8,18.0 52.8,42.0 32.0,54.0 11.2,42.0 11.2,18.0" /></clipPath></defs><g style="filter:grayscale(1);opacity:0.45"><g filter="url(#ds)"><polygon points="32.0,6.0 52.8,18.0 52.8,42.0 32.0,54.0 11.2,42.0 11.2,18.0" fill='url(#bg)' stroke='#826303' stroke-width='2'/></g><g clip-path="url(#cp)"><ellipse cx="30" cy="11" rx="17" ry="6.5" fill="#ffffff" opacity="0.3"/></g><g transform="translate(0 1.3)" opacity="0.28" fill="none" stroke="#826303" stroke-width="2.2" stroke-linecap="round" stroke-linejoin="round"><rect x="26" y="28" width="12" height="10" rx="1.5"/><path d="M23 21l5 5M41 21l-5 5M32 19.5V25"/><path d="M25.5 21H23v2.5M38.5 21H41v2.5M29.5 19.5H32 34.5"/></g><g transform="translate(0 -0.8)" opacity="0.4" fill="none" stroke="#ffffff" stroke-width="2.2" stroke-linecap="round" stroke-linejoin="round"><rect x="26" y="28" width="12" height="10" rx="1.5"/><path d="M23 21l5 5M41 21l-5 5M32 19.5V25"/><path d="M25.5 21H23v2.5M38.5 21H41v2.5M29.5 19.5H32 34.5"/></g><g fill="none" stroke="#AB8204" stroke-width="2.2" stroke-linecap="round" stroke-linejoin="round"><rect x="26" y="28" width="12" height="10" rx="1.5"/><path d="M23 21l5 5M41 21l-5 5M32 19.5V25"/><path d="M25.5 21H23v2.5M38.5 21H41v2.5M29.5 19.5H32 34.5"/></g></g><circle cx="50" cy="14" r="7" fill="#fff" stroke="#9AA4B2" stroke-width="1.6" stroke-dasharray="2.5 2"/></svg>