<svg xmlns="http://www.w3.org/2000/svg" viewBox="0 0 64 64" width="64" height="64"><defs><linearGradient id="bg" x1="0" y1="0" x2="0.25" y2="1"><stop offset="0" stop-color="#C0DEF8"/><stop offset="0.55" stop-color="#1E88E5" stop-opacity="0.35"/><stop offset="1" stop-color="#1E88E5" stop-opacity="0.75"/></linearGradient><filter id="ds" x="-40%" y="-40%" width="180%" height="180%"><feDropShadow dx="0" dy="1.8" stdDeviation="1.8" flood-color="#073966" flood-opacity="0.4"/></filter><clipPath id="cp"><circle cx="32" cy="30" r="24" /></clipPath></defs><g style="filter:grayscale(1);opacity:0.45"><g filter="url(#ds)"><circle cx="32" cy="30" r="24" fill='url(#bg)' stroke='#073966' stroke-width='2'/></g><g clip-path="url(#cp)"><ellipse cx="30" cy="11" rx="17" ry="6.5" fill="#ffffff" opacity="0.3"/></g><g transform="translate(0 1.3)" opacity="0.28" fill="none" stroke="#073966" stroke-width="2.2" stroke-linecap="round" stroke-linejoin="round"><path d="M22 24h16M34 20l4 4-4 4"/><path d="M42 36H26M30 32l-4 4 4 4"/></g><g transform="translate(0 -0.8)" opacity="0.4" fill="none" stroke="#ffffff" stroke-width="2.2" stroke-linecap="round" stroke-linejoin="round"><path d="M22 24h16M34 20l4 4-4 4"/><path d="M42 36H26M30 32l-4 4 4 4"/></g><g fill="none" stroke="#094B85" stroke-width="2.2" stroke-linecap="round" stroke-linejoin="round"><path d="M22 24h16M34 20l4 4-4 4"/><path d="M42 36H26M30 32l-4 4 4 4"/></g></g><circle cx="50" cy="14" r="7" fill="#fff" stroke="#9AA4B2" stroke-width="1.6" stroke-dasharray="2.5 2"/></svg>