<svg xmlns="http://www.w3.org/2000/svg" viewBox="0 0 64 64" width="64" height="64"><defs><linearGradient id="fg" x1="0" y1="0" x2="0" y2="1"><stop offset="0" stop-color="#A8DCF2"/><stop offset="1" stop-color="#4E9CC4"/></linearGradient><linearGradient id="cg" x1="0" y1="0" x2="1" y2="0"><stop offset="0" stop-color="#8FCDE9"/><stop offset="0.5" stop-color="#5FA8CE"/><stop offset="1" stop-color="#35789E"/></linearGradient><radialGradient id="sg" cx="0.35" cy="0.3" r="1"><stop offset="0" stop-color="#C9EAF8"/><stop offset="1" stop-color="#4E9CC4"/></radialGradient><filter id="ds" x="-40%" y="-40%" width="180%" height="180%"><feDropShadow dx="0" dy="1.5" stdDeviation="1.5" flood-color="#0B3C5D" flood-opacity="0.35"/></filter></defs><g><g filter="url(#ds)"><polygon points="44,35 47,32 47,15 44,12" fill="#3E84A8" stroke="#0B3C5D" stroke-width="1.3"/><rect x="14" y="12" width="30" height="23" rx="1.5" fill="#123A5C" stroke="#0B3C5D" stroke-width="1.6"/><g transform="translate(29 23.5) scale(0.50) translate(-32 -30)" fill="none" stroke="#B9C0C8" stroke-width="4.8" stroke-linecap="round" stroke-linejoin="round"><rect x="22" y="20" width="20" height="14" rx="1.5"/><path d="M32 34v4M26 39h12"/><path d="M25.5 31v-4M29.5 31v-7M33.5 31v-3M37.5 31v-6"/></g><rect x="27" y="35" width="4" height="5" fill="url(#fg)" stroke="#0B3C5D" stroke-width="1.3"/><polygon points="21,43 37,43 33,40 25,40" fill="#CFEAF6" stroke="#0B3C5D" stroke-width="1.3"/></g></g><g filter="url(#ds)"><circle cx="51" cy="13" r="7" fill="#E5484D" stroke="#fff" stroke-width="1.5"/></g><path d="M51 9.6v4.2M51 16.3v.6" stroke="#fff" stroke-width="1.7" fill="none" stroke-linecap="round"/></svg>