<svg xmlns="http://www.w3.org/2000/svg" viewBox="0 0 64 64" width="64" height="64"><defs><linearGradient id="fg" x1="0" y1="0" x2="0" y2="1"><stop offset="0" stop-color="#A8DCF2"/><stop offset="1" stop-color="#4E9CC4"/></linearGradient><linearGradient id="cg" x1="0" y1="0" x2="1" y2="0"><stop offset="0" stop-color="#8FCDE9"/><stop offset="0.5" stop-color="#5FA8CE"/><stop offset="1" stop-color="#35789E"/></linearGradient><radialGradient id="sg" cx="0.35" cy="0.3" r="1"><stop offset="0" stop-color="#C9EAF8"/><stop offset="1" stop-color="#4E9CC4"/></radialGradient><filter id="ds" x="-40%" y="-40%" width="180%" height="180%"><feDropShadow dx="0" dy="1.5" stdDeviation="1.5" flood-color="#0B3C5D" flood-opacity="0.35"/></filter></defs><g><g filter="url(#ds)"><polygon points="20,16 25,11 41,11 36,16" fill="#CFEAF6" stroke="#0B3C5D" stroke-width="1.4" stroke-linejoin="round"/><polygon points="36,16 41,11 41,20 36,25" fill="#3E84A8" stroke="#0B3C5D" stroke-width="1.4" stroke-linejoin="round"/><rect x="20" y="16" width="16" height="9" fill="url(#fg)" stroke="#0B3C5D" stroke-width="1.4"/><polygon points="13,25 19,19 49,19 43,25" fill="#CFEAF6" stroke="#0B3C5D" stroke-width="1.4" stroke-linejoin="round"/><polygon points="43,25 49,19 49,30 43,36" fill="#3E84A8" stroke="#0B3C5D" stroke-width="1.4" stroke-linejoin="round"/><rect x="13" y="25" width="30" height="11" fill="url(#fg)" stroke="#0B3C5D" stroke-width="1.4"/><path d="M16 29h15M28 26.5l3 2.5-3 2.5" stroke="#fff" stroke-width="2" fill="none" stroke-linecap="round" stroke-linejoin="round"/><path d="M40 33H25M28 30.5l-3 2.5 3 2.5" stroke="#fff" stroke-width="2" fill="none" stroke-linecap="round" stroke-linejoin="round"/></g></g><g filter="url(#ds)"><circle cx="51" cy="13" r="7" fill="#F2B01E" stroke="#fff" stroke-width="1.5"/></g><path d="M51 9.6v4.2M51 16.3v.6" stroke="#fff" stroke-width="1.7" fill="none" stroke-linecap="round"/></svg>