<svg xmlns="http://www.w3.org/2000/svg" viewBox="0 0 64 64" width="64" height="64"><g><polygon points="32.0,6.0 52.8,18.0 52.8,42.0 32.0,54.0 11.2,42.0 11.2,18.0" fill="#F2994A" fill-opacity="0.09" stroke="#F2994A" stroke-width="2"/><g fill="none" stroke="#BF5C05" stroke-width="2" stroke-linecap="round" stroke-linejoin="round"><rect x="26" y="24" width="12" height="12" rx="1.5"/><rect x="29.5" y="27.5" width="5" height="5"/><path d="M28 24v-3M32 24v-3M36 24v-3M28 39v-3M32 39v-3M36 39v-3M26 27.5h-3M26 31.5h-3M26 35.5h-3M41 27.5h-3M41 31.5h-3M41 35.5h-3"/></g></g><circle cx="50" cy="14" r="7" fill="#E5484D" stroke="#fff" stroke-width="1.5"/><path d="M50 10.6v4.2M50 17.3v.6" stroke="#fff" stroke-width="1.7" fill="none" stroke-linecap="round"/></svg>