<svg xmlns="http://www.w3.org/2000/svg" viewBox="0 0 64 64" width="64" height="64"><defs><linearGradient id="fg" x1="0" y1="0" x2="0" y2="1"><stop offset="0" stop-color="#A8DCF2"/><stop offset="1" stop-color="#4E9CC4"/></linearGradient><linearGradient id="cg" x1="0" y1="0" x2="1" y2="0"><stop offset="0" stop-color="#8FCDE9"/><stop offset="0.5" stop-color="#5FA8CE"/><stop offset="1" stop-color="#35789E"/></linearGradient><radialGradient id="sg" cx="0.35" cy="0.3" r="1"><stop offset="0" stop-color="#C9EAF8"/><stop offset="1" stop-color="#4E9CC4"/></radialGradient><filter id="ds" x="-40%" y="-40%" width="180%" height="180%"><feDropShadow dx="0" dy="1.5" stdDeviation="1.5" flood-color="#0B3C5D" flood-opacity="0.35"/></filter></defs><g><g filter="url(#ds)"><rect x="13" y="21" width="30" height="17" rx="8.5" fill="url(#cg)" stroke="#0B3C5D" stroke-width="1.7"/><ellipse cx="43" cy="29.5" rx="4.5" ry="8.5" fill="#CFEAF6" stroke="#0B3C5D" stroke-width="1.6"/><path d="M20 38v4M36 38v4" stroke="#0B3C5D" stroke-width="2"/><rect x="21.5" y="23.0" width="13" height="13" rx="2.2" fill="#fff" stroke="#F2994A" stroke-width="1.2"/><g transform="translate(28 29.5) scale(0.43) translate(-32 -30)" fill="none" stroke="#AA5204" stroke-width="5.5" stroke-linecap="round" stroke-linejoin="round"><circle cx="32" cy="30" r="10"/><path d="M24 30c2.5-6 4 6 6.5 0s4 6 6.5 0"/><path d="M20 30h2M42 30h-2"/></g></g></g><g filter="url(#ds)"><circle cx="51" cy="13" r="7" fill="#F2B01E" stroke="#fff" stroke-width="1.5"/></g><path d="M51 9.6v4.2M51 16.3v.6" stroke="#fff" stroke-width="1.7" fill="none" stroke-linecap="round"/></svg>