<svg xmlns="http://www.w3.org/2000/svg" viewBox="0 0 64 64" width="64" height="64"><defs><linearGradient id="fg" x1="0" y1="0" x2="0" y2="1"><stop offset="0" stop-color="#A8DCF2"/><stop offset="1" stop-color="#4E9CC4"/></linearGradient><linearGradient id="cg" x1="0" y1="0" x2="1" y2="0"><stop offset="0" stop-color="#8FCDE9"/><stop offset="0.5" stop-color="#5FA8CE"/><stop offset="1" stop-color="#35789E"/></linearGradient><radialGradient id="sg" cx="0.35" cy="0.3" r="1"><stop offset="0" stop-color="#C9EAF8"/><stop offset="1" stop-color="#4E9CC4"/></radialGradient><filter id="ds" x="-40%" y="-40%" width="180%" height="180%"><feDropShadow dx="0" dy="1.5" stdDeviation="1.5" flood-color="#0B3C5D" flood-opacity="0.35"/></filter></defs><g><g filter="url(#ds)"><path d="M24 14l1.2-4.5h2.2l1.2 4.5M34 14l1.2-4.5h2.2l1.2 4.5" fill="#CFEAF6" stroke="#0B3C5D" stroke-width="1.3"/><polygon points="18,16 25,9 47,9 40,16" fill="#CFEAF6" stroke="#0B3C5D" stroke-width="1.4" stroke-linejoin="round"/><polygon points="40,16 47,9 47,31 40,38" fill="#3E84A8" stroke="#0B3C5D" stroke-width="1.4" stroke-linejoin="round"/><rect x="18" y="16" width="22" height="22" fill="url(#fg)" stroke="#0B3C5D" stroke-width="1.4"/><rect x="24.0" y="21.0" width="10" height="10" rx="2.2" fill="#fff" stroke="#F2994A" stroke-width="1.2"/><g transform="translate(29 26) scale(0.33) translate(-32 -30)" fill="none" stroke="#AA5204" stroke-width="7.2" stroke-linecap="round" stroke-linejoin="round"><circle cx="32" cy="25.5" r="6"/><circle cx="32" cy="34.5" r="6"/></g><path d="M44 22v12M46.5 23.5v9" stroke="#0B3C5D" stroke-width="1.3"/></g></g><g filter="url(#ds)"><circle cx="51" cy="13" r="7" fill="#2EBD6B" stroke="#fff" stroke-width="1.5"/></g><path d="M48 13l2.2 2.2 3.6-4.2" stroke="#fff" stroke-width="1.7" fill="none" stroke-linecap="round" stroke-linejoin="round"/></svg>