<svg xmlns="http://www.w3.org/2000/svg" viewBox="0 0 64 64" width="64" height="64"><defs><linearGradient id="fg" x1="0" y1="0" x2="0" y2="1"><stop offset="0" stop-color="#A8DCF2"/><stop offset="1" stop-color="#4E9CC4"/></linearGradient><linearGradient id="cg" x1="0" y1="0" x2="1" y2="0"><stop offset="0" stop-color="#8FCDE9"/><stop offset="0.5" stop-color="#5FA8CE"/><stop offset="1" stop-color="#35789E"/></linearGradient><radialGradient id="sg" cx="0.35" cy="0.3" r="1"><stop offset="0" stop-color="#C9EAF8"/><stop offset="1" stop-color="#4E9CC4"/></radialGradient><filter id="ds" x="-40%" y="-40%" width="180%" height="180%"><feDropShadow dx="0" dy="1.5" stdDeviation="1.5" flood-color="#0B3C5D" flood-opacity="0.35"/></filter></defs><g><g filter="url(#ds)"><path d="M27 14v4M35 14v4" stroke="#0B3C5D" stroke-width="2.4"/><path d="M22 18v22a9 4.5 0 0018 0V18" fill="url(#cg)" stroke="#0B3C5D" stroke-width="1.6"/><ellipse cx="31" cy="18" rx="9" ry="4" fill="#CFEAF6" stroke="#0B3C5D" stroke-width="1.6"/><rect x="25.5" y="24.5" width="11" height="11" rx="2.2" fill="#fff" stroke="#F2994A" stroke-width="1.2"/><g transform="translate(31 30) scale(0.37) translate(-32 -30)" fill="none" stroke="#AA5204" stroke-width="6.5" stroke-linecap="round" stroke-linejoin="round"><rect x="25" y="22" width="14" height="17" rx="3"/><path d="M29 22v-3h6v3"/><path d="M32 26c2.3 2.3 3 3.8 3 5.3a3 3 0 01-6 0c0-1.5.7-3 3-5.3z" fill="#AA5204" stroke="none"/></g></g></g><g filter="url(#ds)"><circle cx="51" cy="13" r="7" fill="#F2B01E" stroke="#fff" stroke-width="1.5"/></g><path d="M51 9.6v4.2M51 16.3v.6" stroke="#fff" stroke-width="1.7" fill="none" stroke-linecap="round"/></svg>